<svg width="70" height="70" viewBox="0 0 70 70" fill="none" xmlns="http://www.w3.org/2000/svg">
    <g clip-path="url(#clip0_65_2)">
        <g filter="url(#filter0_d_65_2)">
            <path
                d="M18.785 58.3096C16.2339 54.5159 14.3869 49.986 11.1673 43.7183L9.05391 38.6363C8.77662 38.0315 8.61024 37.3717 8.55478 36.657C8.44387 35.1176 8.88753 33.798 9.88578 32.6984C10.9395 31.5988 12.2705 31.049 13.8788 31.049C15.598 31.049 16.6681 31.7303 17.5 32.5C18.3873 33.2147 18.5928 34.3524 19.1474 35.507L19.9234 37.7745C20.8108 40.0287 22.0203 42.1729 22.8522 44.2072C23.7395 46.1865 25.135 48.0008 26.1887 49.6502C27.2424 51.2996 28.4347 52.1793 29.7657 52.2893C31.0412 52.1793 32.1782 51.2996 33.1765 49.6502C34.2856 48.0008 35.2561 46.1865 36.088 44.2072C36.9753 42.1729 38.5384 40.0287 39.4257 37.7745L53.4182 7.95856C53.9728 6.80398 54.666 5.86932 55.4978 5.15458C56.3852 4.38486 57.7439 4 59.574 4C61.1823 4 62.4856 4.5498 63.4838 5.6494C64.5375 6.749 64.6109 8.06866 64.5 9.6081C64.4446 10.3228 63.4822 13.1517 63.2049 13.7565L48.0807 44.2072C45.5296 50.4749 43.2144 54.6534 40.6633 58.392C38.1677 62.0757 34.5351 63.945 29.7657 64C24.9408 63.945 21.2806 62.0483 18.785 58.3096Z"
                fill="url(#paint0_linear_65_2)" />
        </g>
    </g>
    <defs>
        <filter id="filter0_d_65_2" x="4.53815" y="4" width="64" height="68" filterUnits="userSpaceOnUse"
            color-interpolation-filters="sRGB">
            <feFlood flood-opacity="0" result="BackgroundImageFix" />
            <feColorMatrix in="SourceAlpha" type="matrix" values="0 0 0 0 0 0 0 0 0 0 0 0 0 0 0 0 0 0 127 0"
                result="hardAlpha" />
            <feOffset dy="4" />
            <feGaussianBlur stdDeviation="2" />
            <feComposite in2="hardAlpha" operator="out" />
            <feColorMatrix type="matrix" values="0 0 0 0 0 0 0 0 0 0 0 0 0 0 0 0 0 0 0.25 0" />
            <feBlend mode="normal" in2="BackgroundImageFix" result="effect1_dropShadow_65_2" />
            <feBlend mode="normal" in="SourceGraphic" in2="effect1_dropShadow_65_2" result="shape" />
        </filter>
        <linearGradient id="paint0_linear_65_2" x1="4.22561" y1="37.9813" x2="-0.852363" y2="71.539"
            gradientUnits="userSpaceOnUse">
            <stop stop-color="#FF017B" />
            <stop offset="1" stop-color="#6A00D4" />
        </linearGradient>
        <clipPath id="clip0_65_2">
            <rect width="70" height="70" fill="white" />
        </clipPath>
    </defs>
</svg>