<svg width="262" height="257" viewBox="0 0 262 257" fill="none" xmlns="http://www.w3.org/2000/svg">
    <path
        d="M248.71 2.12874C259.319 32.0403 263.631 57.0201 259.254 77.853C254.876 98.6843 241.777 115.347 217.689 128.516C209.761 133.957 200.93 146.017 196.28 156.555C196.274 156.568 196.267 156.583 196.262 156.596C190.376 175.036 183.399 192.48 169.358 203.241C169.356 203.243 169.355 203.247 169.353 203.249C161.766 209.37 153.682 219.582 150.593 230.647C150.591 230.654 150.592 230.66 150.591 230.666C150.063 233.21 149.529 235.76 149.742 237.534L149.745 237.546C150.052 240.688 150.815 244.215 150.938 247.385C151.062 250.555 150.553 253.431 148.118 255.134C146.258 256.612 147.37 255.078 147.343 254.669C148.946 251.106 148.124 246.952 146.004 242.906C143.884 238.859 140.476 234.941 137.028 231.896C129.976 225.665 131 226.678 131 226.678V215.885V212.941V209.507V203.129V196.26V190.373V189.391C141.497 188.41 145.124 184.896 150.272 179.727C155.42 174.557 159.359 168.022 162.221 161.611C165.084 155.2 166.879 148.912 167.773 144.26C168.22 141.933 168.437 140.009 168.457 138.701C168.467 138.047 168.424 137.55 168.349 137.256C168.312 137.108 168.262 137.013 168.252 137C168.242 136.986 168.352 137.069 168.46 137.06L168.242 136.26C176.717 133.476 184.132 125.78 189.441 117.45C194.749 109.12 197.96 100.15 198.205 95.0379L198.218 94.7487L198.55 94.6615C217.596 89.6312 230.379 75.1649 238.168 57.6096C245.96 40.0514 248.728 19.4351 247.763 2.27083C247.712 0.187235 248.074 0.382713 248.717 2.12927L248.71 2.12874Z"
        fill="#DD0000" stroke="#DD0000" stroke-opacity="0.9" stroke-width="0.5" />
    <path
        d="M13.1865 2.12874C2.57709 32.0403 -1.73524 57.0201 2.64253 77.853C7.0203 98.6843 20.1189 115.347 44.2068 128.516C52.1357 133.957 60.966 146.017 65.6159 156.555C65.6218 156.568 65.6288 156.583 65.6347 156.596C71.5198 175.036 78.4973 192.48 92.538 203.241C92.5403 203.243 92.541 203.247 92.5434 203.249C100.131 209.37 108.214 219.582 111.303 230.647C111.305 230.654 111.304 230.66 111.305 230.666C111.834 233.21 112.367 235.76 112.154 237.534L112.151 237.546C111.844 240.688 111.081 244.215 110.958 247.385C110.834 250.555 111.343 253.431 113.779 255.134C115.638 256.612 114.526 255.078 114.553 254.669C112.951 251.106 113.773 246.952 115.892 242.906C118.012 238.859 121.42 234.941 124.868 231.896C131.92 225.665 130.896 226.678 130.896 226.678V215.885V212.941V209.507V203.129V196.26V190.373V189.391C120.4 188.41 116.772 184.896 111.624 179.727C106.476 174.557 102.537 168.022 99.6749 161.611C96.8126 155.2 95.017 148.912 94.1233 144.26C93.6764 141.933 93.459 140.009 93.439 138.701C93.4289 138.047 93.4725 137.55 93.547 137.256C93.5842 137.108 93.6338 137.013 93.6442 137C93.6546 136.986 93.5447 137.069 93.4358 137.06L93.6547 136.26C85.1796 133.476 77.7642 125.78 72.4556 117.45C67.1468 109.12 63.9358 100.15 63.6907 95.0379L63.6784 94.7487L63.3463 94.6615C44.3002 89.6312 31.5171 75.1649 23.7284 57.6096C15.9363 40.0514 13.1687 19.4351 14.1335 2.27083C14.1841 0.187235 13.8222 0.382713 13.1795 2.12927L13.1865 2.12874Z"
        fill="#C81E1E" stroke="#DD0000" stroke-width="0.5" />
</svg>