<svg width="281" height="67" viewBox="0 0 281 67" fill="none" xmlns="http://www.w3.org/2000/svg">
    <g filter="url(#filter0_d_5_4)">
        <path
            d="M10.3125 1C12.0625 1 13.5625 1.59375 14.8125 2.78125C16.0625 3.90625 16.7188 5.34375 16.7812 7.09375V29.6875C16.7188 32.25 16.875 34.625 17.25 36.8125C17.6875 38.9375 18.6875 40.8438 20.25 42.5312C21.8125 44.2188 23.7812 45.125 26.1562 45.25H56.1562C57.9062 45.3125 59.3438 45.9688 60.4688 47.2188C61.6562 48.4688 62.25 49.9688 62.25 51.7188C62.1875 53.4062 61.5625 54.8438 60.375 56.0312C59.25 57.1562 57.8438 57.75 56.1562 57.8125H22.9688C18.5938 57.5625 14.9688 56.0938 12.0938 53.4062C9.28125 50.6562 7.25 47.3125 6 43.375C4.8125 39.4375 4.1875 35.25 4.125 30.8125V7.09375C4.1875 5.40625 4.8125 4 6 2.875C7.1875 1.6875 8.625 1.0625 10.3125 1ZM88.5938 2.5H92.9062H124.781C126.531 2.5625 127.969 3.21875 129.094 4.46875C130.281 5.71875 130.875 7.21875 130.875 8.96875C130.562 12.7188 128.531 14.75 124.781 15.0625H91.7812C89.4062 15.1875 87.4375 16.0938 85.875 17.7812C84.3125 19.4688 83.1562 21.4062 82.4062 23.5938C81.7188 25.7188 81.375 27.9062 81.375 30.1562C81.375 32.4062 81.7188 34.625 82.4062 36.8125C83.1562 38.9375 84.3125 40.8438 85.875 42.5312C87.4375 44.2188 89.4062 45.125 91.7812 45.25H124.781C126.531 45.3125 127.969 45.9688 129.094 47.2188C130.281 48.4688 130.875 49.9688 130.875 51.7188C130.812 53.4062 130.188 54.8438 129 56.0312C127.875 57.1562 126.469 57.75 124.781 57.8125H90.375H88.5938C84.2188 57.5625 80.5938 55.9062 77.7188 52.8438C74.9062 49.7188 72.875 46.1875 71.625 42.25C70.4375 38.3125 69.8438 34.2812 69.8438 30.1562C69.8438 26.0312 70.4688 22 71.7188 18.0625C72.9688 14.125 75 10.625 77.8125 7.5625C80.625 4.4375 84.2188 2.75 88.5938 2.5ZM130.688 29.7812C130.688 31.5312 130.062 33 128.812 34.1875C127.625 35.4375 126.156 36.0625 124.406 36.0625H96.0938C94.3438 36.0625 92.8438 35.4688 91.5938 34.2812C90.4062 33.0312 89.8125 31.5312 89.8125 29.7812C89.8125 28.0312 90.4062 26.5312 91.5938 25.2812C92.8438 24.0938 94.3438 23.5 96.0938 23.5H124.406C126.156 23.5 127.625 24.125 128.812 25.375C130.062 26.5625 130.688 28.0312 130.688 29.7812ZM161.344 43.2812C161.344 41.5312 161.938 40.0625 163.125 38.875C164.375 37.625 165.875 37 167.625 37H181.969L179.531 30.0625C178.531 27.5 177.531 25.0938 176.531 22.8438C175.594 20.5312 174.5 18.4375 173.25 16.5625C172.125 14.6875 170.844 13.6875 169.406 13.5625C167.906 13.6875 166.562 14.6875 165.375 16.5625C164.188 18.4375 163.094 20.5312 162.094 22.8438C161.156 25.0938 160.188 27.5 159.188 30.0625L150.281 54.4375C149.656 55.75 148.844 56.8438 147.844 57.7188C146.906 58.5312 145.469 58.9375 143.531 58.9375C141.719 58.9375 140.219 58.3125 139.031 57.0625C137.906 55.8125 137.406 54.3125 137.531 52.5625C137.594 51.75 137.781 51 138.094 50.3125L148.406 23.6875C151.281 16.6875 154.156 11.0312 157.031 6.71875C159.844 2.46875 163.969 0.3125 169.406 0.25C174.781 0.3125 178.875 2.46875 181.688 6.71875C184.562 10.9062 187.438 16.5625 190.312 23.6875L200.625 50.3125C200.938 51 201.125 51.75 201.188 52.5625C201.312 54.3125 200.781 55.8125 199.594 57.0625C198.469 58.3125 197 58.9375 195.188 58.9375C193.125 58.9375 191.594 58.5312 190.594 57.7188C189.656 56.8438 188.875 55.75 188.25 54.4375L186.469 49.5625H167.625C165.875 49.5625 164.406 48.9375 163.219 47.6875C161.969 46.5 161.344 45.0312 161.344 43.2812ZM223.219 52.8438C222.844 56.5938 220.781 58.625 217.031 58.9375C215.281 58.9375 213.75 58.375 212.438 57.25C211.188 56.0625 210.562 54.5938 210.562 52.8438V8.59375C210.625 6.84375 211.281 5.40625 212.531 4.28125C213.781 3.09375 215.281 2.5 217.031 2.5H256.406C261.906 2.6875 266.062 3.90625 268.875 6.15625C271.688 8.34375 273.719 10.8438 274.969 13.6562C276.219 16.4688 276.844 19.3125 276.844 22.1875C276.844 25.1875 276.219 28.0938 274.969 30.9062C273.781 33.7188 271.75 36.25 268.875 38.5C266.062 40.6875 262.469 41.75 258.094 41.6875H234.469C232.719 41.6875 231.25 41.0625 230.062 39.8125C228.812 38.625 228.188 37.1562 228.188 35.4062C228.188 33.6562 228.781 32.1875 229.969 31C231.219 29.75 232.719 29.125 234.469 29.125H258.656C259.844 29.125 260.812 28.75 261.562 28C262.375 27.1875 262.969 26.2812 263.344 25.2812C263.719 24.2188 263.906 23.1562 263.906 22.0938C263.906 21.0938 263.719 20.0938 263.344 19.0938C262.969 18.0312 262.375 17.125 261.562 16.375C260.812 15.5625 259.844 15.125 258.656 15.0625H225.656C224.031 15.125 223.219 15.9375 223.219 17.5V52.8438Z"
            fill="white" />
        <path
            d="M10.3125 1C12.0625 1 13.5625 1.59375 14.8125 2.78125C16.0625 3.90625 16.7188 5.34375 16.7812 7.09375V29.6875C16.7188 32.25 16.875 34.625 17.25 36.8125C17.6875 38.9375 18.6875 40.8438 20.25 42.5312C21.8125 44.2188 23.7812 45.125 26.1562 45.25H56.1562C57.9062 45.3125 59.3438 45.9688 60.4688 47.2188C61.6562 48.4688 62.25 49.9688 62.25 51.7188C62.1875 53.4062 61.5625 54.8438 60.375 56.0312C59.25 57.1562 57.8438 57.75 56.1562 57.8125H22.9688C18.5938 57.5625 14.9688 56.0938 12.0938 53.4062C9.28125 50.6562 7.25 47.3125 6 43.375C4.8125 39.4375 4.1875 35.25 4.125 30.8125V7.09375C4.1875 5.40625 4.8125 4 6 2.875C7.1875 1.6875 8.625 1.0625 10.3125 1ZM88.5938 2.5H92.9062H124.781C126.531 2.5625 127.969 3.21875 129.094 4.46875C130.281 5.71875 130.875 7.21875 130.875 8.96875C130.562 12.7188 128.531 14.75 124.781 15.0625H91.7812C89.4062 15.1875 87.4375 16.0938 85.875 17.7812C84.3125 19.4688 83.1562 21.4062 82.4062 23.5938C81.7188 25.7188 81.375 27.9062 81.375 30.1562C81.375 32.4062 81.7188 34.625 82.4062 36.8125C83.1562 38.9375 84.3125 40.8438 85.875 42.5312C87.4375 44.2188 89.4062 45.125 91.7812 45.25H124.781C126.531 45.3125 127.969 45.9688 129.094 47.2188C130.281 48.4688 130.875 49.9688 130.875 51.7188C130.812 53.4062 130.188 54.8438 129 56.0312C127.875 57.1562 126.469 57.75 124.781 57.8125H90.375H88.5938C84.2188 57.5625 80.5938 55.9062 77.7188 52.8438C74.9062 49.7188 72.875 46.1875 71.625 42.25C70.4375 38.3125 69.8438 34.2812 69.8438 30.1562C69.8438 26.0312 70.4688 22 71.7188 18.0625C72.9688 14.125 75 10.625 77.8125 7.5625C80.625 4.4375 84.2188 2.75 88.5938 2.5ZM130.688 29.7812C130.688 31.5312 130.062 33 128.812 34.1875C127.625 35.4375 126.156 36.0625 124.406 36.0625H96.0938C94.3438 36.0625 92.8438 35.4688 91.5938 34.2812C90.4062 33.0312 89.8125 31.5312 89.8125 29.7812C89.8125 28.0312 90.4062 26.5312 91.5938 25.2812C92.8438 24.0938 94.3438 23.5 96.0938 23.5H124.406C126.156 23.5 127.625 24.125 128.812 25.375C130.062 26.5625 130.688 28.0312 130.688 29.7812ZM161.344 43.2812C161.344 41.5312 161.938 40.0625 163.125 38.875C164.375 37.625 165.875 37 167.625 37H181.969L179.531 30.0625C178.531 27.5 177.531 25.0938 176.531 22.8438C175.594 20.5312 174.5 18.4375 173.25 16.5625C172.125 14.6875 170.844 13.6875 169.406 13.5625C167.906 13.6875 166.562 14.6875 165.375 16.5625C164.188 18.4375 163.094 20.5312 162.094 22.8438C161.156 25.0938 160.188 27.5 159.188 30.0625L150.281 54.4375C149.656 55.75 148.844 56.8438 147.844 57.7188C146.906 58.5312 145.469 58.9375 143.531 58.9375C141.719 58.9375 140.219 58.3125 139.031 57.0625C137.906 55.8125 137.406 54.3125 137.531 52.5625C137.594 51.75 137.781 51 138.094 50.3125L148.406 23.6875C151.281 16.6875 154.156 11.0312 157.031 6.71875C159.844 2.46875 163.969 0.3125 169.406 0.25C174.781 0.3125 178.875 2.46875 181.688 6.71875C184.562 10.9062 187.438 16.5625 190.312 23.6875L200.625 50.3125C200.938 51 201.125 51.75 201.188 52.5625C201.312 54.3125 200.781 55.8125 199.594 57.0625C198.469 58.3125 197 58.9375 195.188 58.9375C193.125 58.9375 191.594 58.5312 190.594 57.7188C189.656 56.8438 188.875 55.75 188.25 54.4375L186.469 49.5625H167.625C165.875 49.5625 164.406 48.9375 163.219 47.6875C161.969 46.5 161.344 45.0312 161.344 43.2812ZM223.219 52.8438C222.844 56.5938 220.781 58.625 217.031 58.9375C215.281 58.9375 213.75 58.375 212.438 57.25C211.188 56.0625 210.562 54.5938 210.562 52.8438V8.59375C210.625 6.84375 211.281 5.40625 212.531 4.28125C213.781 3.09375 215.281 2.5 217.031 2.5H256.406C261.906 2.6875 266.062 3.90625 268.875 6.15625C271.688 8.34375 273.719 10.8438 274.969 13.6562C276.219 16.4688 276.844 19.3125 276.844 22.1875C276.844 25.1875 276.219 28.0938 274.969 30.9062C273.781 33.7188 271.75 36.25 268.875 38.5C266.062 40.6875 262.469 41.75 258.094 41.6875H234.469C232.719 41.6875 231.25 41.0625 230.062 39.8125C228.812 38.625 228.188 37.1562 228.188 35.4062C228.188 33.6562 228.781 32.1875 229.969 31C231.219 29.75 232.719 29.125 234.469 29.125H258.656C259.844 29.125 260.812 28.75 261.562 28C262.375 27.1875 262.969 26.2812 263.344 25.2812C263.719 24.2188 263.906 23.1562 263.906 22.0938C263.906 21.0938 263.719 20.0938 263.344 19.0938C262.969 18.0312 262.375 17.125 261.562 16.375C260.812 15.5625 259.844 15.125 258.656 15.0625H225.656C224.031 15.125 223.219 15.9375 223.219 17.5V52.8438Z"
            fill="#F43E49" />
        <path
            d="M10.3125 1C12.0625 1 13.5625 1.59375 14.8125 2.78125C16.0625 3.90625 16.7188 5.34375 16.7812 7.09375V29.6875C16.7188 32.25 16.875 34.625 17.25 36.8125C17.6875 38.9375 18.6875 40.8438 20.25 42.5312C21.8125 44.2188 23.7812 45.125 26.1562 45.25H56.1562C57.9062 45.3125 59.3438 45.9688 60.4688 47.2188C61.6562 48.4688 62.25 49.9688 62.25 51.7188C62.1875 53.4062 61.5625 54.8438 60.375 56.0312C59.25 57.1562 57.8438 57.75 56.1562 57.8125H22.9688C18.5938 57.5625 14.9688 56.0938 12.0938 53.4062C9.28125 50.6562 7.25 47.3125 6 43.375C4.8125 39.4375 4.1875 35.25 4.125 30.8125V7.09375C4.1875 5.40625 4.8125 4 6 2.875C7.1875 1.6875 8.625 1.0625 10.3125 1ZM88.5938 2.5H92.9062H124.781C126.531 2.5625 127.969 3.21875 129.094 4.46875C130.281 5.71875 130.875 7.21875 130.875 8.96875C130.562 12.7188 128.531 14.75 124.781 15.0625H91.7812C89.4062 15.1875 87.4375 16.0938 85.875 17.7812C84.3125 19.4688 83.1562 21.4062 82.4062 23.5938C81.7188 25.7188 81.375 27.9062 81.375 30.1562C81.375 32.4062 81.7188 34.625 82.4062 36.8125C83.1562 38.9375 84.3125 40.8438 85.875 42.5312C87.4375 44.2188 89.4062 45.125 91.7812 45.25H124.781C126.531 45.3125 127.969 45.9688 129.094 47.2188C130.281 48.4688 130.875 49.9688 130.875 51.7188C130.812 53.4062 130.188 54.8438 129 56.0312C127.875 57.1562 126.469 57.75 124.781 57.8125H90.375H88.5938C84.2188 57.5625 80.5938 55.9062 77.7188 52.8438C74.9062 49.7188 72.875 46.1875 71.625 42.25C70.4375 38.3125 69.8438 34.2812 69.8438 30.1562C69.8438 26.0312 70.4688 22 71.7188 18.0625C72.9688 14.125 75 10.625 77.8125 7.5625C80.625 4.4375 84.2188 2.75 88.5938 2.5ZM130.688 29.7812C130.688 31.5312 130.062 33 128.812 34.1875C127.625 35.4375 126.156 36.0625 124.406 36.0625H96.0938C94.3438 36.0625 92.8438 35.4688 91.5938 34.2812C90.4062 33.0312 89.8125 31.5312 89.8125 29.7812C89.8125 28.0312 90.4062 26.5312 91.5938 25.2812C92.8438 24.0938 94.3438 23.5 96.0938 23.5H124.406C126.156 23.5 127.625 24.125 128.812 25.375C130.062 26.5625 130.688 28.0312 130.688 29.7812ZM161.344 43.2812C161.344 41.5312 161.938 40.0625 163.125 38.875C164.375 37.625 165.875 37 167.625 37H181.969L179.531 30.0625C178.531 27.5 177.531 25.0938 176.531 22.8438C175.594 20.5312 174.5 18.4375 173.25 16.5625C172.125 14.6875 170.844 13.6875 169.406 13.5625C167.906 13.6875 166.562 14.6875 165.375 16.5625C164.188 18.4375 163.094 20.5312 162.094 22.8438C161.156 25.0938 160.188 27.5 159.188 30.0625L150.281 54.4375C149.656 55.75 148.844 56.8438 147.844 57.7188C146.906 58.5312 145.469 58.9375 143.531 58.9375C141.719 58.9375 140.219 58.3125 139.031 57.0625C137.906 55.8125 137.406 54.3125 137.531 52.5625C137.594 51.75 137.781 51 138.094 50.3125L148.406 23.6875C151.281 16.6875 154.156 11.0312 157.031 6.71875C159.844 2.46875 163.969 0.3125 169.406 0.25C174.781 0.3125 178.875 2.46875 181.688 6.71875C184.562 10.9062 187.438 16.5625 190.312 23.6875L200.625 50.3125C200.938 51 201.125 51.75 201.188 52.5625C201.312 54.3125 200.781 55.8125 199.594 57.0625C198.469 58.3125 197 58.9375 195.188 58.9375C193.125 58.9375 191.594 58.5312 190.594 57.7188C189.656 56.8438 188.875 55.75 188.25 54.4375L186.469 49.5625H167.625C165.875 49.5625 164.406 48.9375 163.219 47.6875C161.969 46.5 161.344 45.0312 161.344 43.2812ZM223.219 52.8438C222.844 56.5938 220.781 58.625 217.031 58.9375C215.281 58.9375 213.75 58.375 212.438 57.25C211.188 56.0625 210.562 54.5938 210.562 52.8438V8.59375C210.625 6.84375 211.281 5.40625 212.531 4.28125C213.781 3.09375 215.281 2.5 217.031 2.5H256.406C261.906 2.6875 266.062 3.90625 268.875 6.15625C271.688 8.34375 273.719 10.8438 274.969 13.6562C276.219 16.4688 276.844 19.3125 276.844 22.1875C276.844 25.1875 276.219 28.0938 274.969 30.9062C273.781 33.7188 271.75 36.25 268.875 38.5C266.062 40.6875 262.469 41.75 258.094 41.6875H234.469C232.719 41.6875 231.25 41.0625 230.062 39.8125C228.812 38.625 228.188 37.1562 228.188 35.4062C228.188 33.6562 228.781 32.1875 229.969 31C231.219 29.75 232.719 29.125 234.469 29.125H258.656C259.844 29.125 260.812 28.75 261.562 28C262.375 27.1875 262.969 26.2812 263.344 25.2812C263.719 24.2188 263.906 23.1562 263.906 22.0938C263.906 21.0938 263.719 20.0938 263.344 19.0938C262.969 18.0312 262.375 17.125 261.562 16.375C260.812 15.5625 259.844 15.125 258.656 15.0625H225.656C224.031 15.125 223.219 15.9375 223.219 17.5V52.8438Z"
            fill="url(#paint0_linear_5_4)" />
    </g>
    <defs>
        <filter id="filter0_d_5_4" x="0.125" y="0.25" width="280.719" height="66.6875" filterUnits="userSpaceOnUse"
            color-interpolation-filters="sRGB">
            <feFlood flood-opacity="0" result="BackgroundImageFix" />
            <feColorMatrix in="SourceAlpha" type="matrix" values="0 0 0 0 0 0 0 0 0 0 0 0 0 0 0 0 0 0 127 0"
                result="hardAlpha" />
            <feOffset dy="4" />
            <feGaussianBlur stdDeviation="2" />
            <feComposite in2="hardAlpha" operator="out" />
            <feColorMatrix type="matrix" values="0 0 0 0 0 0 0 0 0 0 0 0 0 0 0 0 0 0 0.25 0" />
            <feBlend mode="normal" in2="BackgroundImageFix" result="effect1_dropShadow_5_4" />
            <feBlend mode="normal" in="SourceGraphic" in2="effect1_dropShadow_5_4" result="shape" />
        </filter>
        <linearGradient id="paint0_linear_5_4" x1="-9.84466" y1="28.8567" x2="-11.417" y2="70.5608"
            gradientUnits="userSpaceOnUse">
            <stop stop-color="#FF017B" />
            <stop offset="1" stop-color="#6A00D4" />
        </linearGradient>
    </defs>
</svg>