<svg width="547" height="109" viewBox="0 0 547 109" fill="none" xmlns="http://www.w3.org/2000/svg">
    <g filter="url(#filter0_d_5_2)">
        <path
            d="M29 83.8438C26.125 79.5312 23.25 73.875 20.375 66.875L10.0625 40.25C9.75 39.5625 9.5625 38.8125 9.5 38C9.375 36.25 9.875 34.75 11 33.5C12.1875 32.25 13.6875 31.625 15.5 31.625C17.4375 31.625 18.875 32.0625 19.8125 32.9375C20.8125 33.75 21.625 34.8125 22.25 36.125L31.1562 60.5C32.1562 63.0625 33.125 65.5 34.0625 67.8125C35.0625 70.0625 36.1562 72.125 37.3438 74C38.5312 75.875 39.875 76.875 41.375 77C42.8125 76.875 44.0938 75.875 45.2188 74C46.4688 72.125 47.5625 70.0625 48.5 67.8125C49.5 65.5 50.5 63.0625 51.5 60.5L60.2188 36.125C60.8438 34.8125 61.625 33.75 62.5625 32.9375C63.5625 32.0625 65.0938 31.625 67.1562 31.625C68.9688 31.625 70.4375 32.25 71.5625 33.5C72.75 34.75 73.2812 36.25 73.1562 38C73.0938 38.8125 72.9062 39.5625 72.5938 40.25L62.2812 66.875C59.4062 74 56.5312 79.6875 53.6562 83.9375C50.8438 88.125 46.75 90.25 41.375 90.3125C35.9375 90.25 31.8125 88.0938 29 83.8438ZM89.2812 45.3125C90.9688 45.375 92.4062 46 93.5938 47.1875C94.7812 48.3125 95.4062 49.7188 95.4688 51.4062V83.8438C95.0938 87.5938 93.0312 89.625 89.2812 89.9375C87.5312 89.9375 86 89.375 84.6875 88.25C83.4375 87.0625 82.8125 85.5938 82.8125 83.8438V51.4062C82.875 49.6562 83.5312 48.2188 84.7812 47.0938C86.0312 45.9062 87.5312 45.3125 89.2812 45.3125ZM81.4062 33.125C81.4062 31.375 82.1562 29.875 83.6562 28.625C85.1562 27.375 86.9688 26.75 89.0938 26.75C91.2188 26.75 93.0312 27.375 94.5312 28.625C96.0312 29.875 96.7812 31.375 96.7812 33.125C96.7812 34.9375 96.0312 36.4688 94.5312 37.7188C93.0312 38.9688 91.2188 39.5938 89.0938 39.5938C86.9688 39.5938 85.1562 38.9688 83.6562 37.7188C82.1562 36.4688 81.4062 34.9375 81.4062 33.125ZM136.812 44.8438C140.062 44.8438 143.25 45.2188 146.375 45.9688C149.562 46.7188 152.594 47.8438 155.469 49.3438C158.344 50.7812 160.875 52.7188 163.062 55.1562C165.312 57.5938 166.531 60.5 166.719 63.875V67.8125V83.8438C166.344 87.5938 164.281 89.625 160.531 89.9375C158.781 89.9375 157.25 89.375 155.938 88.25C154.688 87.0625 154.062 85.5938 154.062 83.8438V79.7188V66.7812C153.938 64.8438 153.188 63.25 151.812 62C150.5 60.6875 149 59.6562 147.312 58.9062C145.688 58.1562 143.969 57.5938 142.156 57.2188C140.406 56.8438 138.625 56.6562 136.812 56.6562C135 56.6562 133.188 56.8438 131.375 57.2188C129.625 57.5938 127.906 58.1562 126.219 58.9062C124.594 59.6562 123.094 60.6875 121.719 62C120.406 63.25 119.688 64.8438 119.562 66.7812V79.7188V83.8438C119.25 87.5938 117.219 89.625 113.469 89.9375C111.719 89.9375 110.188 89.375 108.875 88.25C107.625 87.0625 107 85.5938 107 83.8438V67.8125V63.875C107.188 60.5 108.375 57.5938 110.562 55.1562C112.75 52.7188 115.281 50.7812 118.156 49.3438C121.031 47.8438 124.031 46.7188 127.156 45.9688C130.344 45.2188 133.562 44.8438 136.812 44.8438ZM231.031 83.8438V61.25C231.031 59.6875 230.219 58.875 228.594 58.8125H195.781C194.594 58.875 193.562 59.4062 192.688 60.4062C191.812 61.3438 191.156 62.4688 190.719 63.7812C190.344 65.0312 190.156 66.3125 190.156 67.625C190.156 68.875 190.344 70.1562 190.719 71.4688C191.156 72.7188 191.812 73.8438 192.688 74.8438C193.562 75.7812 194.594 76.25 195.781 76.25H219.781C221.531 76.25 223 76.875 224.188 78.125C225.438 79.3125 226.062 80.7812 226.062 82.5312C226.062 84.2812 225.438 85.75 224.188 86.9375C223 88.1875 221.531 88.8125 219.781 88.8125H196.156C191.781 88.75 188.156 87.5312 185.281 85.1562C182.469 82.7188 180.438 80 179.188 77C178 73.9375 177.406 70.7812 177.406 67.5312C177.406 64.4062 178.031 61.3438 179.281 58.3438C180.531 55.2812 182.562 52.5625 185.375 50.1875C188.188 47.75 192.344 46.4375 197.844 46.25H237.219C238.969 46.25 240.469 46.8438 241.719 48.0312C242.969 49.1562 243.625 50.5938 243.688 52.3438V83.8438C243.688 85.5938 243.031 87.0625 241.719 88.25C240.469 89.375 238.969 89.9375 237.219 89.9375C233.469 89.625 231.406 87.5938 231.031 83.8438ZM315.312 51.6875C315.312 53.25 314.688 54.5625 313.438 55.625C312.25 56.625 310.781 57.125 309.031 57.125H269.375C268.562 57.125 267.906 57.2812 267.406 57.5938C266.906 57.9062 266.531 58.25 266.281 58.625C266.031 58.9375 265.906 59.2188 265.906 59.4688C265.906 59.7812 266.031 60.125 266.281 60.5C266.531 60.8125 266.906 61.125 267.406 61.4375C267.906 61.6875 268.562 61.8438 269.375 61.9062H300.031C303.969 61.9688 307.219 62.75 309.781 64.25C312.344 65.6875 314.156 67.4062 315.219 69.4062C316.344 71.3438 316.906 73.3125 316.906 75.3125C316.906 77.25 316.344 79.2188 315.219 81.2188C314.094 83.1562 312.25 84.875 309.688 86.375C307.188 87.8125 303.969 88.5312 300.031 88.5312C299.344 88.5938 298.844 88.625 298.531 88.625H262.156C260.406 88.625 258.906 88.125 257.656 87.125C256.469 86.0625 255.875 84.7812 255.875 83.2812C255.875 81.7188 256.5 80.4062 257.75 79.3438C258.938 78.3438 260.406 77.8438 262.156 77.8438H300.781C301.719 77.9062 302.469 77.7812 303.031 77.4688C303.656 77.1562 304.125 76.8125 304.438 76.4375C304.75 76.0625 304.906 75.6875 304.906 75.3125C304.906 75.125 304.75 74.8125 304.438 74.375C304.125 73.875 303.656 73.5 303.031 73.25C302.469 72.9375 301.719 72.75 300.781 72.6875H270.031C266.406 72.625 263.406 71.875 261.031 70.4375C258.656 68.9375 256.969 67.2188 255.969 65.2812C254.969 63.3438 254.469 61.4062 254.469 59.4688C254.469 57.5312 254.969 55.625 255.969 53.75C257.031 51.8125 258.719 50.1562 261.031 48.7812C263.406 47.3438 266.406 46.5625 270.031 46.4375C270.656 46.375 271.125 46.3438 271.438 46.3438H309.031C310.781 46.3438 312.25 46.875 313.438 47.9375C314.688 48.9375 315.312 50.1875 315.312 51.6875ZM333.781 32C335.469 32.0625 336.906 32.6875 338.094 33.875C339.281 35 339.906 36.4062 339.969 38.0938V46.25H369.031C373.406 46.3125 377 47.5625 379.812 50C382.688 52.375 384.719 55.0625 385.906 58.0625C387.156 61.125 387.781 64.2812 387.781 67.5312H387.875V83.8438C387.875 85.5938 387.219 87.0625 385.906 88.25C384.656 89.375 383.156 89.9375 381.406 89.9375C377.656 89.625 375.594 87.5938 375.219 83.8438V67.4375C375.219 66.25 374.969 65 374.469 63.6875C374.031 62.375 373.375 61.25 372.5 60.3125C371.625 59.3125 370.594 58.8125 369.406 58.8125H339.969V84.0312C339.594 87.7812 337.531 89.8125 333.781 90.125C332.031 90.125 330.5 89.5625 329.188 88.4375C327.938 87.25 327.312 85.7812 327.312 84.0312V38.0938C327.375 36.3438 328.031 34.9062 329.281 33.7812C330.531 32.5938 332.031 32 333.781 32ZM452.094 83.8438V61.25C452.094 59.6875 451.281 58.875 449.656 58.8125H416.844C415.656 58.875 414.625 59.4062 413.75 60.4062C412.875 61.3438 412.219 62.4688 411.781 63.7812C411.406 65.0312 411.219 66.3125 411.219 67.625C411.219 68.875 411.406 70.1562 411.781 71.4688C412.219 72.7188 412.875 73.8438 413.75 74.8438C414.625 75.7812 415.656 76.25 416.844 76.25H440.844C442.594 76.25 444.062 76.875 445.25 78.125C446.5 79.3125 447.125 80.7812 447.125 82.5312C447.125 84.2812 446.5 85.75 445.25 86.9375C444.062 88.1875 442.594 88.8125 440.844 88.8125H417.219C412.844 88.75 409.219 87.5312 406.344 85.1562C403.531 82.7188 401.5 80 400.25 77C399.062 73.9375 398.469 70.7812 398.469 67.5312C398.469 64.4062 399.094 61.3438 400.344 58.3438C401.594 55.2812 403.625 52.5625 406.438 50.1875C409.25 47.75 413.406 46.4375 418.906 46.25H458.281C460.031 46.25 461.531 46.8438 462.781 48.0312C464.031 49.1562 464.688 50.5938 464.75 52.3438V83.8438C464.75 85.5938 464.094 87.0625 462.781 88.25C461.531 89.375 460.031 89.9375 458.281 89.9375C454.531 89.625 452.469 87.5938 452.094 83.8438ZM483.312 32C485 32.0625 486.438 32.6875 487.625 33.875C488.812 35 489.438 36.4062 489.5 38.0938V84.0312C489.125 87.7812 487.062 89.8125 483.312 90.125C481.562 90.125 480.031 89.5625 478.719 88.4375C477.469 87.25 476.844 85.7812 476.844 84.0312V38.0938C476.906 36.3438 477.562 34.9062 478.812 33.7812C480.062 32.5938 481.562 32 483.312 32ZM495.219 58.1562C497.031 55.2188 500.5 53.0625 505.625 51.6875L529.719 45.2188C531.406 44.7188 533 44.875 534.5 45.6875C536.062 46.4375 537.094 47.6562 537.594 49.3438C538.156 50.9688 538.031 52.5625 537.219 54.125C536.469 55.625 535.25 56.6562 533.562 57.2188L507.875 63.875C506.062 64.5625 505.188 65.75 505.25 67.4375C505.188 69.125 506.062 70.3125 507.875 71L533.562 77.6562C535.25 78.2188 536.469 79.2812 537.219 80.8438C538.031 82.3438 538.156 83.9062 537.594 85.5312C537.094 87.2188 536.062 88.4375 534.5 89.1875C533 90 531.406 90.1562 529.719 89.6562L505.625 83.1875C500.438 81.75 496.938 79.5625 495.125 76.625C493.375 73.6875 492.5 70.625 492.5 67.4375C492.5 64.25 493.406 61.1562 495.219 58.1562Z"
            fill="white" />
        <path
            d="M29 83.8438C26.125 79.5312 23.25 73.875 20.375 66.875L10.0625 40.25C9.75 39.5625 9.5625 38.8125 9.5 38C9.375 36.25 9.875 34.75 11 33.5C12.1875 32.25 13.6875 31.625 15.5 31.625C17.4375 31.625 18.875 32.0625 19.8125 32.9375C20.8125 33.75 21.625 34.8125 22.25 36.125L31.1562 60.5C32.1562 63.0625 33.125 65.5 34.0625 67.8125C35.0625 70.0625 36.1562 72.125 37.3438 74C38.5312 75.875 39.875 76.875 41.375 77C42.8125 76.875 44.0938 75.875 45.2188 74C46.4688 72.125 47.5625 70.0625 48.5 67.8125C49.5 65.5 50.5 63.0625 51.5 60.5L60.2188 36.125C60.8438 34.8125 61.625 33.75 62.5625 32.9375C63.5625 32.0625 65.0938 31.625 67.1562 31.625C68.9688 31.625 70.4375 32.25 71.5625 33.5C72.75 34.75 73.2812 36.25 73.1562 38C73.0938 38.8125 72.9062 39.5625 72.5938 40.25L62.2812 66.875C59.4062 74 56.5312 79.6875 53.6562 83.9375C50.8438 88.125 46.75 90.25 41.375 90.3125C35.9375 90.25 31.8125 88.0938 29 83.8438ZM89.2812 45.3125C90.9688 45.375 92.4062 46 93.5938 47.1875C94.7812 48.3125 95.4062 49.7188 95.4688 51.4062V83.8438C95.0938 87.5938 93.0312 89.625 89.2812 89.9375C87.5312 89.9375 86 89.375 84.6875 88.25C83.4375 87.0625 82.8125 85.5938 82.8125 83.8438V51.4062C82.875 49.6562 83.5312 48.2188 84.7812 47.0938C86.0312 45.9062 87.5312 45.3125 89.2812 45.3125ZM81.4062 33.125C81.4062 31.375 82.1562 29.875 83.6562 28.625C85.1562 27.375 86.9688 26.75 89.0938 26.75C91.2188 26.75 93.0312 27.375 94.5312 28.625C96.0312 29.875 96.7812 31.375 96.7812 33.125C96.7812 34.9375 96.0312 36.4688 94.5312 37.7188C93.0312 38.9688 91.2188 39.5938 89.0938 39.5938C86.9688 39.5938 85.1562 38.9688 83.6562 37.7188C82.1562 36.4688 81.4062 34.9375 81.4062 33.125ZM136.812 44.8438C140.062 44.8438 143.25 45.2188 146.375 45.9688C149.562 46.7188 152.594 47.8438 155.469 49.3438C158.344 50.7812 160.875 52.7188 163.062 55.1562C165.312 57.5938 166.531 60.5 166.719 63.875V67.8125V83.8438C166.344 87.5938 164.281 89.625 160.531 89.9375C158.781 89.9375 157.25 89.375 155.938 88.25C154.688 87.0625 154.062 85.5938 154.062 83.8438V79.7188V66.7812C153.938 64.8438 153.188 63.25 151.812 62C150.5 60.6875 149 59.6562 147.312 58.9062C145.688 58.1562 143.969 57.5938 142.156 57.2188C140.406 56.8438 138.625 56.6562 136.812 56.6562C135 56.6562 133.188 56.8438 131.375 57.2188C129.625 57.5938 127.906 58.1562 126.219 58.9062C124.594 59.6562 123.094 60.6875 121.719 62C120.406 63.25 119.688 64.8438 119.562 66.7812V79.7188V83.8438C119.25 87.5938 117.219 89.625 113.469 89.9375C111.719 89.9375 110.188 89.375 108.875 88.25C107.625 87.0625 107 85.5938 107 83.8438V67.8125V63.875C107.188 60.5 108.375 57.5938 110.562 55.1562C112.75 52.7188 115.281 50.7812 118.156 49.3438C121.031 47.8438 124.031 46.7188 127.156 45.9688C130.344 45.2188 133.562 44.8438 136.812 44.8438ZM231.031 83.8438V61.25C231.031 59.6875 230.219 58.875 228.594 58.8125H195.781C194.594 58.875 193.562 59.4062 192.688 60.4062C191.812 61.3438 191.156 62.4688 190.719 63.7812C190.344 65.0312 190.156 66.3125 190.156 67.625C190.156 68.875 190.344 70.1562 190.719 71.4688C191.156 72.7188 191.812 73.8438 192.688 74.8438C193.562 75.7812 194.594 76.25 195.781 76.25H219.781C221.531 76.25 223 76.875 224.188 78.125C225.438 79.3125 226.062 80.7812 226.062 82.5312C226.062 84.2812 225.438 85.75 224.188 86.9375C223 88.1875 221.531 88.8125 219.781 88.8125H196.156C191.781 88.75 188.156 87.5312 185.281 85.1562C182.469 82.7188 180.438 80 179.188 77C178 73.9375 177.406 70.7812 177.406 67.5312C177.406 64.4062 178.031 61.3438 179.281 58.3438C180.531 55.2812 182.562 52.5625 185.375 50.1875C188.188 47.75 192.344 46.4375 197.844 46.25H237.219C238.969 46.25 240.469 46.8438 241.719 48.0312C242.969 49.1562 243.625 50.5938 243.688 52.3438V83.8438C243.688 85.5938 243.031 87.0625 241.719 88.25C240.469 89.375 238.969 89.9375 237.219 89.9375C233.469 89.625 231.406 87.5938 231.031 83.8438ZM315.312 51.6875C315.312 53.25 314.688 54.5625 313.438 55.625C312.25 56.625 310.781 57.125 309.031 57.125H269.375C268.562 57.125 267.906 57.2812 267.406 57.5938C266.906 57.9062 266.531 58.25 266.281 58.625C266.031 58.9375 265.906 59.2188 265.906 59.4688C265.906 59.7812 266.031 60.125 266.281 60.5C266.531 60.8125 266.906 61.125 267.406 61.4375C267.906 61.6875 268.562 61.8438 269.375 61.9062H300.031C303.969 61.9688 307.219 62.75 309.781 64.25C312.344 65.6875 314.156 67.4062 315.219 69.4062C316.344 71.3438 316.906 73.3125 316.906 75.3125C316.906 77.25 316.344 79.2188 315.219 81.2188C314.094 83.1562 312.25 84.875 309.688 86.375C307.188 87.8125 303.969 88.5312 300.031 88.5312C299.344 88.5938 298.844 88.625 298.531 88.625H262.156C260.406 88.625 258.906 88.125 257.656 87.125C256.469 86.0625 255.875 84.7812 255.875 83.2812C255.875 81.7188 256.5 80.4062 257.75 79.3438C258.938 78.3438 260.406 77.8438 262.156 77.8438H300.781C301.719 77.9062 302.469 77.7812 303.031 77.4688C303.656 77.1562 304.125 76.8125 304.438 76.4375C304.75 76.0625 304.906 75.6875 304.906 75.3125C304.906 75.125 304.75 74.8125 304.438 74.375C304.125 73.875 303.656 73.5 303.031 73.25C302.469 72.9375 301.719 72.75 300.781 72.6875H270.031C266.406 72.625 263.406 71.875 261.031 70.4375C258.656 68.9375 256.969 67.2188 255.969 65.2812C254.969 63.3438 254.469 61.4062 254.469 59.4688C254.469 57.5312 254.969 55.625 255.969 53.75C257.031 51.8125 258.719 50.1562 261.031 48.7812C263.406 47.3438 266.406 46.5625 270.031 46.4375C270.656 46.375 271.125 46.3438 271.438 46.3438H309.031C310.781 46.3438 312.25 46.875 313.438 47.9375C314.688 48.9375 315.312 50.1875 315.312 51.6875ZM333.781 32C335.469 32.0625 336.906 32.6875 338.094 33.875C339.281 35 339.906 36.4062 339.969 38.0938V46.25H369.031C373.406 46.3125 377 47.5625 379.812 50C382.688 52.375 384.719 55.0625 385.906 58.0625C387.156 61.125 387.781 64.2812 387.781 67.5312H387.875V83.8438C387.875 85.5938 387.219 87.0625 385.906 88.25C384.656 89.375 383.156 89.9375 381.406 89.9375C377.656 89.625 375.594 87.5938 375.219 83.8438V67.4375C375.219 66.25 374.969 65 374.469 63.6875C374.031 62.375 373.375 61.25 372.5 60.3125C371.625 59.3125 370.594 58.8125 369.406 58.8125H339.969V84.0312C339.594 87.7812 337.531 89.8125 333.781 90.125C332.031 90.125 330.5 89.5625 329.188 88.4375C327.938 87.25 327.312 85.7812 327.312 84.0312V38.0938C327.375 36.3438 328.031 34.9062 329.281 33.7812C330.531 32.5938 332.031 32 333.781 32ZM452.094 83.8438V61.25C452.094 59.6875 451.281 58.875 449.656 58.8125H416.844C415.656 58.875 414.625 59.4062 413.75 60.4062C412.875 61.3438 412.219 62.4688 411.781 63.7812C411.406 65.0312 411.219 66.3125 411.219 67.625C411.219 68.875 411.406 70.1562 411.781 71.4688C412.219 72.7188 412.875 73.8438 413.75 74.8438C414.625 75.7812 415.656 76.25 416.844 76.25H440.844C442.594 76.25 444.062 76.875 445.25 78.125C446.5 79.3125 447.125 80.7812 447.125 82.5312C447.125 84.2812 446.5 85.75 445.25 86.9375C444.062 88.1875 442.594 88.8125 440.844 88.8125H417.219C412.844 88.75 409.219 87.5312 406.344 85.1562C403.531 82.7188 401.5 80 400.25 77C399.062 73.9375 398.469 70.7812 398.469 67.5312C398.469 64.4062 399.094 61.3438 400.344 58.3438C401.594 55.2812 403.625 52.5625 406.438 50.1875C409.25 47.75 413.406 46.4375 418.906 46.25H458.281C460.031 46.25 461.531 46.8438 462.781 48.0312C464.031 49.1562 464.688 50.5938 464.75 52.3438V83.8438C464.75 85.5938 464.094 87.0625 462.781 88.25C461.531 89.375 460.031 89.9375 458.281 89.9375C454.531 89.625 452.469 87.5938 452.094 83.8438ZM483.312 32C485 32.0625 486.438 32.6875 487.625 33.875C488.812 35 489.438 36.4062 489.5 38.0938V84.0312C489.125 87.7812 487.062 89.8125 483.312 90.125C481.562 90.125 480.031 89.5625 478.719 88.4375C477.469 87.25 476.844 85.7812 476.844 84.0312V38.0938C476.906 36.3438 477.562 34.9062 478.812 33.7812C480.062 32.5938 481.562 32 483.312 32ZM495.219 58.1562C497.031 55.2188 500.5 53.0625 505.625 51.6875L529.719 45.2188C531.406 44.7188 533 44.875 534.5 45.6875C536.062 46.4375 537.094 47.6562 537.594 49.3438C538.156 50.9688 538.031 52.5625 537.219 54.125C536.469 55.625 535.25 56.6562 533.562 57.2188L507.875 63.875C506.062 64.5625 505.188 65.75 505.25 67.4375C505.188 69.125 506.062 70.3125 507.875 71L533.562 77.6562C535.25 78.2188 536.469 79.2812 537.219 80.8438C538.031 82.3438 538.156 83.9062 537.594 85.5312C537.094 87.2188 536.062 88.4375 534.5 89.1875C533 90 531.406 90.1562 529.719 89.6562L505.625 83.1875C500.438 81.75 496.938 79.5625 495.125 76.625C493.375 73.6875 492.5 70.625 492.5 67.4375C492.5 64.25 493.406 61.1562 495.219 58.1562Z"
            fill="#F43E49" />
        <path
            d="M29 83.8438C26.125 79.5312 23.25 73.875 20.375 66.875L10.0625 40.25C9.75 39.5625 9.5625 38.8125 9.5 38C9.375 36.25 9.875 34.75 11 33.5C12.1875 32.25 13.6875 31.625 15.5 31.625C17.4375 31.625 18.875 32.0625 19.8125 32.9375C20.8125 33.75 21.625 34.8125 22.25 36.125L31.1562 60.5C32.1562 63.0625 33.125 65.5 34.0625 67.8125C35.0625 70.0625 36.1562 72.125 37.3438 74C38.5312 75.875 39.875 76.875 41.375 77C42.8125 76.875 44.0938 75.875 45.2188 74C46.4688 72.125 47.5625 70.0625 48.5 67.8125C49.5 65.5 50.5 63.0625 51.5 60.5L60.2188 36.125C60.8438 34.8125 61.625 33.75 62.5625 32.9375C63.5625 32.0625 65.0938 31.625 67.1562 31.625C68.9688 31.625 70.4375 32.25 71.5625 33.5C72.75 34.75 73.2812 36.25 73.1562 38C73.0938 38.8125 72.9062 39.5625 72.5938 40.25L62.2812 66.875C59.4062 74 56.5312 79.6875 53.6562 83.9375C50.8438 88.125 46.75 90.25 41.375 90.3125C35.9375 90.25 31.8125 88.0938 29 83.8438ZM89.2812 45.3125C90.9688 45.375 92.4062 46 93.5938 47.1875C94.7812 48.3125 95.4062 49.7188 95.4688 51.4062V83.8438C95.0938 87.5938 93.0312 89.625 89.2812 89.9375C87.5312 89.9375 86 89.375 84.6875 88.25C83.4375 87.0625 82.8125 85.5938 82.8125 83.8438V51.4062C82.875 49.6562 83.5312 48.2188 84.7812 47.0938C86.0312 45.9062 87.5312 45.3125 89.2812 45.3125ZM81.4062 33.125C81.4062 31.375 82.1562 29.875 83.6562 28.625C85.1562 27.375 86.9688 26.75 89.0938 26.75C91.2188 26.75 93.0312 27.375 94.5312 28.625C96.0312 29.875 96.7812 31.375 96.7812 33.125C96.7812 34.9375 96.0312 36.4688 94.5312 37.7188C93.0312 38.9688 91.2188 39.5938 89.0938 39.5938C86.9688 39.5938 85.1562 38.9688 83.6562 37.7188C82.1562 36.4688 81.4062 34.9375 81.4062 33.125ZM136.812 44.8438C140.062 44.8438 143.25 45.2188 146.375 45.9688C149.562 46.7188 152.594 47.8438 155.469 49.3438C158.344 50.7812 160.875 52.7188 163.062 55.1562C165.312 57.5938 166.531 60.5 166.719 63.875V67.8125V83.8438C166.344 87.5938 164.281 89.625 160.531 89.9375C158.781 89.9375 157.25 89.375 155.938 88.25C154.688 87.0625 154.062 85.5938 154.062 83.8438V79.7188V66.7812C153.938 64.8438 153.188 63.25 151.812 62C150.5 60.6875 149 59.6562 147.312 58.9062C145.688 58.1562 143.969 57.5938 142.156 57.2188C140.406 56.8438 138.625 56.6562 136.812 56.6562C135 56.6562 133.188 56.8438 131.375 57.2188C129.625 57.5938 127.906 58.1562 126.219 58.9062C124.594 59.6562 123.094 60.6875 121.719 62C120.406 63.25 119.688 64.8438 119.562 66.7812V79.7188V83.8438C119.25 87.5938 117.219 89.625 113.469 89.9375C111.719 89.9375 110.188 89.375 108.875 88.25C107.625 87.0625 107 85.5938 107 83.8438V67.8125V63.875C107.188 60.5 108.375 57.5938 110.562 55.1562C112.75 52.7188 115.281 50.7812 118.156 49.3438C121.031 47.8438 124.031 46.7188 127.156 45.9688C130.344 45.2188 133.562 44.8438 136.812 44.8438ZM231.031 83.8438V61.25C231.031 59.6875 230.219 58.875 228.594 58.8125H195.781C194.594 58.875 193.562 59.4062 192.688 60.4062C191.812 61.3438 191.156 62.4688 190.719 63.7812C190.344 65.0312 190.156 66.3125 190.156 67.625C190.156 68.875 190.344 70.1562 190.719 71.4688C191.156 72.7188 191.812 73.8438 192.688 74.8438C193.562 75.7812 194.594 76.25 195.781 76.25H219.781C221.531 76.25 223 76.875 224.188 78.125C225.438 79.3125 226.062 80.7812 226.062 82.5312C226.062 84.2812 225.438 85.75 224.188 86.9375C223 88.1875 221.531 88.8125 219.781 88.8125H196.156C191.781 88.75 188.156 87.5312 185.281 85.1562C182.469 82.7188 180.438 80 179.188 77C178 73.9375 177.406 70.7812 177.406 67.5312C177.406 64.4062 178.031 61.3438 179.281 58.3438C180.531 55.2812 182.562 52.5625 185.375 50.1875C188.188 47.75 192.344 46.4375 197.844 46.25H237.219C238.969 46.25 240.469 46.8438 241.719 48.0312C242.969 49.1562 243.625 50.5938 243.688 52.3438V83.8438C243.688 85.5938 243.031 87.0625 241.719 88.25C240.469 89.375 238.969 89.9375 237.219 89.9375C233.469 89.625 231.406 87.5938 231.031 83.8438ZM315.312 51.6875C315.312 53.25 314.688 54.5625 313.438 55.625C312.25 56.625 310.781 57.125 309.031 57.125H269.375C268.562 57.125 267.906 57.2812 267.406 57.5938C266.906 57.9062 266.531 58.25 266.281 58.625C266.031 58.9375 265.906 59.2188 265.906 59.4688C265.906 59.7812 266.031 60.125 266.281 60.5C266.531 60.8125 266.906 61.125 267.406 61.4375C267.906 61.6875 268.562 61.8438 269.375 61.9062H300.031C303.969 61.9688 307.219 62.75 309.781 64.25C312.344 65.6875 314.156 67.4062 315.219 69.4062C316.344 71.3438 316.906 73.3125 316.906 75.3125C316.906 77.25 316.344 79.2188 315.219 81.2188C314.094 83.1562 312.25 84.875 309.688 86.375C307.188 87.8125 303.969 88.5312 300.031 88.5312C299.344 88.5938 298.844 88.625 298.531 88.625H262.156C260.406 88.625 258.906 88.125 257.656 87.125C256.469 86.0625 255.875 84.7812 255.875 83.2812C255.875 81.7188 256.5 80.4062 257.75 79.3438C258.938 78.3438 260.406 77.8438 262.156 77.8438H300.781C301.719 77.9062 302.469 77.7812 303.031 77.4688C303.656 77.1562 304.125 76.8125 304.438 76.4375C304.75 76.0625 304.906 75.6875 304.906 75.3125C304.906 75.125 304.75 74.8125 304.438 74.375C304.125 73.875 303.656 73.5 303.031 73.25C302.469 72.9375 301.719 72.75 300.781 72.6875H270.031C266.406 72.625 263.406 71.875 261.031 70.4375C258.656 68.9375 256.969 67.2188 255.969 65.2812C254.969 63.3438 254.469 61.4062 254.469 59.4688C254.469 57.5312 254.969 55.625 255.969 53.75C257.031 51.8125 258.719 50.1562 261.031 48.7812C263.406 47.3438 266.406 46.5625 270.031 46.4375C270.656 46.375 271.125 46.3438 271.438 46.3438H309.031C310.781 46.3438 312.25 46.875 313.438 47.9375C314.688 48.9375 315.312 50.1875 315.312 51.6875ZM333.781 32C335.469 32.0625 336.906 32.6875 338.094 33.875C339.281 35 339.906 36.4062 339.969 38.0938V46.25H369.031C373.406 46.3125 377 47.5625 379.812 50C382.688 52.375 384.719 55.0625 385.906 58.0625C387.156 61.125 387.781 64.2812 387.781 67.5312H387.875V83.8438C387.875 85.5938 387.219 87.0625 385.906 88.25C384.656 89.375 383.156 89.9375 381.406 89.9375C377.656 89.625 375.594 87.5938 375.219 83.8438V67.4375C375.219 66.25 374.969 65 374.469 63.6875C374.031 62.375 373.375 61.25 372.5 60.3125C371.625 59.3125 370.594 58.8125 369.406 58.8125H339.969V84.0312C339.594 87.7812 337.531 89.8125 333.781 90.125C332.031 90.125 330.5 89.5625 329.188 88.4375C327.938 87.25 327.312 85.7812 327.312 84.0312V38.0938C327.375 36.3438 328.031 34.9062 329.281 33.7812C330.531 32.5938 332.031 32 333.781 32ZM452.094 83.8438V61.25C452.094 59.6875 451.281 58.875 449.656 58.8125H416.844C415.656 58.875 414.625 59.4062 413.75 60.4062C412.875 61.3438 412.219 62.4688 411.781 63.7812C411.406 65.0312 411.219 66.3125 411.219 67.625C411.219 68.875 411.406 70.1562 411.781 71.4688C412.219 72.7188 412.875 73.8438 413.75 74.8438C414.625 75.7812 415.656 76.25 416.844 76.25H440.844C442.594 76.25 444.062 76.875 445.25 78.125C446.5 79.3125 447.125 80.7812 447.125 82.5312C447.125 84.2812 446.5 85.75 445.25 86.9375C444.062 88.1875 442.594 88.8125 440.844 88.8125H417.219C412.844 88.75 409.219 87.5312 406.344 85.1562C403.531 82.7188 401.5 80 400.25 77C399.062 73.9375 398.469 70.7812 398.469 67.5312C398.469 64.4062 399.094 61.3438 400.344 58.3438C401.594 55.2812 403.625 52.5625 406.438 50.1875C409.25 47.75 413.406 46.4375 418.906 46.25H458.281C460.031 46.25 461.531 46.8438 462.781 48.0312C464.031 49.1562 464.688 50.5938 464.75 52.3438V83.8438C464.75 85.5938 464.094 87.0625 462.781 88.25C461.531 89.375 460.031 89.9375 458.281 89.9375C454.531 89.625 452.469 87.5938 452.094 83.8438ZM483.312 32C485 32.0625 486.438 32.6875 487.625 33.875C488.812 35 489.438 36.4062 489.5 38.0938V84.0312C489.125 87.7812 487.062 89.8125 483.312 90.125C481.562 90.125 480.031 89.5625 478.719 88.4375C477.469 87.25 476.844 85.7812 476.844 84.0312V38.0938C476.906 36.3438 477.562 34.9062 478.812 33.7812C480.062 32.5938 481.562 32 483.312 32ZM495.219 58.1562C497.031 55.2188 500.5 53.0625 505.625 51.6875L529.719 45.2188C531.406 44.7188 533 44.875 534.5 45.6875C536.062 46.4375 537.094 47.6562 537.594 49.3438C538.156 50.9688 538.031 52.5625 537.219 54.125C536.469 55.625 535.25 56.6562 533.562 57.2188L507.875 63.875C506.062 64.5625 505.188 65.75 505.25 67.4375C505.188 69.125 506.062 70.3125 507.875 71L533.562 77.6562C535.25 78.2188 536.469 79.2812 537.219 80.8438C538.031 82.3438 538.156 83.9062 537.594 85.5312C537.094 87.2188 536.062 88.4375 534.5 89.1875C533 90 531.406 90.1562 529.719 89.6562L505.625 83.1875C500.438 81.75 496.938 79.5625 495.125 76.625C493.375 73.6875 492.5 70.625 492.5 67.4375C492.5 64.25 493.406 61.1562 495.219 58.1562Z"
            fill="url(#paint0_linear_5_2)" />
    </g>
    <defs>
        <filter id="filter0_d_5_2" x="5.3125" y="26.75" width="537.125" height="71.6562" filterUnits="userSpaceOnUse"
            color-interpolation-filters="sRGB">
            <feFlood flood-opacity="0" result="BackgroundImageFix" />
            <feColorMatrix in="SourceAlpha" type="matrix" values="0 0 0 0 0 0 0 0 0 0 0 0 0 0 0 0 0 0 127 0"
                result="hardAlpha" />
            <feOffset dy="4" />
            <feGaussianBlur stdDeviation="2" />
            <feComposite in2="hardAlpha" operator="out" />
            <feColorMatrix type="matrix" values="0 0 0 0 0 0 0 0 0 0 0 0 0 0 0 0 0 0 0.25 0" />
            <feBlend mode="normal" in2="BackgroundImageFix" result="effect1_dropShadow_5_2" />
            <feBlend mode="normal" in="SourceGraphic" in2="effect1_dropShadow_5_2" result="shape" />
        </filter>
        <linearGradient id="paint0_linear_5_2" x1="-5.31068" y1="62.4983" x2="-7.18932" y2="124.801"
            gradientUnits="userSpaceOnUse">
            <stop stop-color="#FF017B" />
            <stop offset="1" stop-color="#6A00D4" />
        </linearGradient>
    </defs>
</svg>